<svg width="1160" height="292" viewBox="0 0 1160 292" fill="none" xmlns="http://www.w3.org/2000/svg">
<path d="M642.173 189C642.173 197.455 642.173 205.41 642.173 213.599C634.652 213.599 627.747 213.599 620.566 213.599C620.566 167.976 620.566 122.579 620.566 77.2725C634.365 77.2725 648.078 76.2651 661.572 77.5495C675.692 78.8934 684.534 88.4153 686.368 103.451C687.628 113.783 687.422 124.443 686.551 134.845C685.641 145.708 679.245 153.51 668.7 158.087C674.732 176.558 680.688 194.798 686.86 213.7C679.748 213.7 673.317 213.876 666.914 213.531C665.816 213.471 664.328 211.347 663.883 209.909C659.468 195.626 654.937 181.365 651.107 166.921C649.738 161.757 647.513 159.984 642.173 161.358C642.173 170.276 642.173 179.388 642.173 189ZM658.5 95.5989C653 95.5989 649.5 95.5989 642.641 95.5989C642.641 112.152 642.641 127.354 642.641 142.839C647.119 142.839 651.263 143.124 655.351 142.772C661.441 142.248 664.964 138.54 665.205 132.321C665.512 124.362 665.888 116.352 665.282 108.437C665.021 105.039 664 95.5989 658.5 95.5989Z" fill="#2D3136"/>
<path d="M344.301 119C344.241 140.159 343.915 160.821 344.19 181.476C344.503 204.952 328.536 217.614 305.084 215.516C285.68 213.78 275.104 202.145 274.955 182.626C274.697 148.808 274.625 114.988 274.489 81.1691C274.484 79.8607 274.629 78.5516 274.719 76.978C281.823 76.978 288.729 76.978 295.941 76.978C296.02 78.5221 296.154 79.9736 296.16 81.4255C296.289 114.078 296.401 146.731 296.528 179.384C296.535 181.214 296.588 183.048 296.721 184.873C297.277 192.448 302.016 196.329 310.295 196.037C317.564 195.781 322.117 191.279 322.147 184.043C322.29 150.222 322.374 116.401 322.478 82.58C322.484 80.7793 322.479 78.9785 322.479 76.9546C329.887 76.9546 336.811 76.9546 344.301 76.9546C344.301 90.969 344.301 104.735 344.301 119Z" fill="#2C3035"/>
<path d="M983.004 165C983.085 171.495 982.929 177.505 983.303 183.482C983.844 192.106 988.48 196.266 996.796 196.121C1004.61 195.985 1009.15 191.524 1009.22 183.006C1009.5 149.863 1009.59 116.719 1009.74 83.5749C1009.75 81.5958 1009.74 79.6166 1009.74 77.1934C1016.82 77.1934 1023.57 77.1934 1030.71 77.1934C1030.82 78.2767 1031.05 79.5482 1031.05 80.8197C1031.05 114.303 1031.1 147.787 1030.96 181.27C1030.91 193.106 1027.75 203.701 1017.04 210.555C1002.37 219.942 977.532 216.468 968.26 203.722C963.145 196.691 961.503 188.497 961.456 180.098C961.266 146.284 961.334 112.469 961.319 78.6535C961.319 78.3438 961.497 78.034 961.74 77.2382C968.459 77.2382 975.33 77.2382 983.004 77.2382C983.004 106.312 983.004 135.406 983.004 165Z" fill="#7449DD"/>
<path d="M736.133 94.8846C731.54 96.0641 728.971 99.165 728.611 103.09C728.054 109.169 728.064 115.375 728.609 121.457C729.083 126.753 733.107 129.837 737.711 131.874C743.638 134.498 749.724 136.765 755.621 139.453C766.475 144.4 773.242 152.968 774.294 164.724C775.085 173.568 775.068 182.833 773.315 191.485C769.452 210.552 754.825 217.68 734.968 215.453C716.148 213.342 706.613 201.96 706.056 182.831C705.921 178.202 706.036 173.565 706.036 168.54C713.148 168.54 719.908 168.54 727.781 168.54C727.781 173.14 727.684 177.89 727.801 182.635C728.054 192.917 732.268 196.731 742.489 196.094C747.706 195.77 751.757 192.894 752.383 187.272C753.111 180.729 753.374 173.869 752.136 167.476C751.427 163.817 747.862 160.102 744.625 157.702C740.836 154.892 736.126 153.149 731.606 151.527C710.333 143.889 704.619 129.565 706.448 107.242C707.253 97.4078 709.375 87.8375 717.907 81.6376C730.204 72.7026 743.876 72.772 757.362 78.0661C768.935 82.609 772.779 92.9988 774.015 104.473C774.578 109.704 774.639 114.989 774.948 120.61C767.281 120.61 760.376 120.61 753.046 120.61C752.815 116.165 752.623 111.9 752.364 107.639C751.704 96.7521 747.368 93.2555 736.133 94.8846Z" fill="#744ADD"/>
<path d="M418.851 160.992C413.911 162.443 409.363 164.097 404.669 164.882C399.95 165.671 395.087 165.595 389.557 165.944C389.557 181.752 389.557 197.496 389.557 213.583C382.096 213.583 375.367 213.583 368.058 213.583C368.058 168.217 368.058 122.851 368.058 77.6172C381.833 77.6172 395.831 76.5555 409.586 77.9276C422.333 79.1992 430.53 87.7292 433.089 100.498C435.826 114.16 435.634 127.958 433.056 141.654C431.459 150.141 426.672 156.505 418.851 160.992ZM404.234 145.047C409.125 144.088 412.183 140.824 412.334 136.181C412.674 125.738 412.712 115.237 411.894 104.836C411.683 102.152 408.263 98.3 405.588 97.5358C400.504 96.0831 394.893 96.4717 389.415 96.0896C389.415 113.033 389.415 128.954 389.415 145.754C394.271 145.526 398.84 145.311 404.234 145.047Z" fill="#2B2F34"/>
<path d="M503.792 161.767C498.853 163.217 494.305 164.871 489.611 165.656C484.892 166.445 480.029 166.369 474.498 166.718C474.498 182.527 474.498 198.271 474.498 214.357C467.038 214.357 460.309 214.357 453 214.357C453 168.992 453 123.625 453 78.3918C466.775 78.3918 480.773 77.3301 494.528 78.7022C507.275 79.9738 515.472 88.5038 518.031 101.273C520.768 114.934 520.575 128.733 517.998 142.429C516.401 150.916 511.614 157.28 503.792 161.767ZM489.176 145.822C494.067 144.862 497.125 141.599 497.276 136.956C497.616 126.512 497.654 116.011 496.836 105.611C496.625 102.927 493.205 99.0746 490.53 98.3104C485.445 96.8577 479.835 97.2463 474.357 96.8642C474.357 113.808 474.357 129.729 474.357 146.529C479.213 146.3 483.782 146.085 489.176 145.822Z" fill="#2B2F34"/>
<path d="M1051.49 77.4594C1064.32 77.0889 1076.82 76.6917 1089.3 77.1244C1103.07 77.602 1114.46 86.9943 1116.27 101.467C1117.86 114.208 1117.92 127.473 1116.28 140.202C1114.31 155.571 1103.11 164.105 1087.52 164.953C1082.75 165.213 1077.95 164.994 1072.71 164.994C1072.71 181.651 1072.71 197.423 1072.71 213.56C1065.51 213.56 1058.78 213.56 1051.79 213.56C1051.57 212.79 1051.18 212.036 1051.18 211.281C1051.15 166.787 1051.15 122.293 1051.49 77.4594ZM1083.03 145.735C1093.17 145.404 1095.8 139.837 1095.95 134.275C1096.2 125.295 1096.08 116.301 1095.96 107.315C1095.91 102.728 1093.63 98.7192 1089.39 97.6383C1083.95 96.2494 1078.13 96.3463 1072.69 95.8235C1072.69 113.213 1072.69 129.307 1072.69 145.754C1076.2 145.754 1079.17 145.754 1083.03 145.735Z" fill="#744ADD"/>
<path d="M121.583 205.555C116.801 208.289 112.325 210.82 106.841 213.922C115.217 218.491 122.816 222.778 130.594 226.708C131.631 227.232 133.73 226.209 135.088 225.454C156.464 213.575 177.8 201.621 199.145 189.685C200.718 188.805 202.291 187.923 204.905 186.46C204.905 195.679 204.984 204.041 204.793 212.397C204.771 213.327 203.368 214.507 202.334 215.09C179.729 227.843 157.113 240.577 134.39 253.118C132.84 253.973 130.084 253.977 128.488 253.179C122.096 249.985 115.852 246.462 109.767 242.715C108.418 241.884 107.397 239.718 107.173 238.04C106.762 234.965 107.056 231.796 107.056 228.141C105.705 228.602 104.826 228.671 104.266 229.129C97.4615 234.708 91.3722 233.298 84.1702 228.883C69.0087 219.589 53.2561 211.253 37.6529 202.693C34.5056 200.967 33.1133 198.981 33.278 195.271C33.5865 188.318 33.3668 181.342 33.3668 173.402C36.0626 174.635 38.1401 175.418 40.0584 176.487C56.9142 185.882 73.7743 195.271 90.5452 204.816C93.3184 206.394 95.5115 206.532 98.327 204.93C111.05 197.69 124.027 190.884 136.609 183.412C141.602 180.446 145.797 179.428 150.492 183.384C151.731 184.428 153.294 185.088 155.622 186.464C143.974 192.987 132.932 199.17 121.583 205.555Z" fill="#744ADD"/>
<path d="M538.068 113C538.068 100.72 538.068 88.9402 538.068 76.9308C558.153 76.9308 577.752 76.9308 597.714 76.9308C597.714 83.1612 597.714 89.3719 597.714 96.1431C585.325 96.1431 572.925 96.1431 560.233 96.1431C560.233 109.253 560.233 121.812 560.233 134.902C570.831 134.902 581.406 134.902 592.247 134.902C592.247 141.671 592.247 147.913 592.247 154.502C581.557 154.502 571.122 154.502 560.31 154.502C560.31 167.716 560.31 180.591 560.31 193.96C572.591 193.96 584.991 193.96 597.731 193.96C597.731 200.814 597.731 207.183 597.731 213.78C578.023 213.78 558.436 213.78 538.068 213.78C538.068 180.263 538.068 146.882 538.068 113Z" fill="#2C3035"/>
<path d="M820.122 154.762C818.327 154.833 817.02 154.904 815.589 154.982C815.589 167.914 815.589 180.657 815.589 194.011C828.432 194.011 840.82 194.011 853.599 194.011C853.599 200.827 853.599 207.041 853.599 213.561C834.01 213.561 814.43 213.561 794.422 213.561C794.422 168.196 794.422 122.975 794.422 77.3005C813.897 77.3005 833.587 77.3005 853.616 77.3005C853.616 83.4317 853.616 89.4954 853.616 96.259C843.027 96.259 832.584 96.2556 822.14 96.2603C815.124 96.2634 815.193 96.2682 815.237 103.369C815.302 113.677 815.254 123.986 815.254 135.008C826.266 135.008 836.96 135.008 847.93 135.008C847.93 141.82 847.93 147.921 847.93 154.762C838.812 154.762 829.71 154.762 820.122 154.762Z" fill="#744ADD"/>
<path d="M55.6156 75.3992C79.582 88.8094 103.274 101.959 126.844 115.325C130.143 117.196 132.538 117.248 135.875 115.343C157.101 103.23 178.471 91.3675 199.803 79.4401C201.213 78.6515 202.706 78.0094 204.787 76.9931C204.787 85.6774 204.907 93.7563 204.662 101.824C204.623 103.083 203.185 104.753 201.951 105.454C179.401 118.266 156.818 131.021 134.102 143.536C132.559 144.386 129.569 143.864 127.831 142.917C110.023 133.21 92.3154 123.32 74.6213 113.407C62.7288 106.744 50.9921 99.797 38.9995 93.3224C34.7077 91.0054 32.6459 88.4267 33.1072 83.2755C33.6652 77.0443 33.2395 70.725 33.2395 63.1816C41.1734 67.5061 48.2379 71.3566 55.6156 75.3992Z" fill="#744ADD"/>
<path d="M896.927 159C896.927 138.045 896.927 117.591 896.927 96.3763C888.719 96.3763 881.154 96.3763 873.328 96.3763C873.328 89.6666 873.328 83.7191 873.328 77.2219C896.073 77.2219 918.796 77.2219 942.142 77.2219C942.142 83.1573 942.142 89.3933 942.142 96.3663C934.731 96.3663 927.01 96.3663 918.75 96.3663C918.75 135.828 918.75 174.571 918.75 213.653C911.312 213.653 904.438 213.653 896.927 213.653C896.927 195.374 896.927 177.437 896.927 159Z" fill="#744ADE"/>
<path d="M122.887 58.1133C133.763 64.2391 144.313 70.1979 155.635 76.5929C147.606 81.0819 140.296 85.2741 132.85 89.2083C131.841 89.741 129.929 89.3768 128.807 88.7567C114.113 80.6411 99.4674 72.4366 84.8774 64.1355C83.7449 63.4912 82.4038 61.9748 82.3732 60.8312C82.157 52.7532 82.2583 44.6667 82.2583 35.4756C96.2535 43.2788 109.407 50.6125 122.887 58.1133Z" fill="#744ADD"/>
<path d="M109.345 171.313C106.85 172.71 104.67 173.919 102.498 175.141C93.6293 180.133 91.8442 179.906 83.4037 172.237C99.1438 163.388 114.666 154.662 131.058 145.447C131.058 150.021 131.264 153.758 130.935 157.448C130.834 158.58 129.468 159.924 128.338 160.587C122.173 164.202 115.9 167.635 109.345 171.313Z" fill="#764CDE"/>
</svg>
